<?xml version="1.0" encoding="UTF-8"?>
<svg id="Layer_1" data-name="Layer 1" xmlns="http://www.w3.org/2000/svg" viewBox="0 0 310.48 113.25">
  <defs>
    <style>
      .cls-1, .cls-2 {
        fill: #231f20;
      }

      .cls-2 {
        fill-rule: evenodd;
      }
    </style>
  </defs>
  <path class="cls-2" d="M300.93,91.91c5.91-3.4,9.55-9.69,9.55-16.5v-37.57c0-6.81-3.64-13.1-9.55-16.5l-32.61-18.78c-5.91-3.4-13.19-3.4-19.1,0l-32.61,18.78c-5.91,3.4-9.55,9.7-9.55,16.5v37.57c0,6.81,3.64,13.1,9.55,16.5l32.61,18.78c5.91,3.4,13.19,3.4,19.1,0l32.61-18.78ZM300.93,75.41c0,3.4-1.82,6.55-4.78,8.25l-17.07,9.83c-1.5.87-2.26,1.3-2.87,1.24-.54-.06-1.03-.34-1.35-.78-.36-.5-.36-1.37-.36-3.1v-19.66c0-3.4,1.82-6.55,4.78-8.25l9.14-5.26c1.26-.72,1.88-1.08,2.34-1.59.4-.45.71-.97.89-1.55.21-.65.21-1.37.21-2.82v-.43c0-2.16,0-3.24-.46-3.87-.4-.55-1.01-.9-1.68-.97-.77-.08-1.71.46-3.59,1.54l-11.62,6.69c-5.91,3.4-9.55,9.69-9.55,16.5v28.82c0,1-.54,1.93-1.41,2.43-2.95,1.7-6.6,1.7-9.55,0l-32.61-18.78c-2.95-1.7-4.78-4.85-4.78-8.25v-19.36c0-1.73,0-2.6.36-3.1.32-.44.81-.72,1.35-.78.62-.06,1.37.37,2.87,1.23l16.72,9.63c2.95,1.7,4.78,4.85,4.78,8.25v10.03c0,1.45,0,2.17.21,2.81.19.57.49,1.1.9,1.55.46.5,1.09.87,2.34,1.59l.38.22c1.88,1.08,2.82,1.62,3.59,1.54.67-.07,1.28-.42,1.68-.97.46-.63.46-1.71.46-3.87v-12.89c0-6.81-3.64-13.1-9.55-16.5l-24.41-14.06c-1.03-.59-1.67-1.69-1.67-2.88,0-3.4,1.82-6.55,4.78-8.25l32.61-18.78c2.95-1.7,6.6-1.7,9.55,0l16.88,9.72c1.5.87,2.26,1.3,2.51,1.87.22.49.22,1.06,0,1.55-.25.57-1,1-2.51,1.87l-17.15,9.88c-2.95,1.7-6.6,1.7-9.55,0l-9.61-5.53c-.96-.55-1.43-.83-1.94-.94-.45-.1-.92-.1-1.37-.01-.51.1-.99.37-1.96.9l-1.19.66c-1.93,1.07-2.9,1.6-3.22,2.31-.28.62-.29,1.33-.02,1.95.31.71,1.27,1.27,3.18,2.37l11.35,6.54c5.91,3.4,13.19,3.4,19.1,0l24.91-14.35c.99-.57,2.2-.57,3.19,0,2.95,1.7,4.78,4.85,4.78,8.25v37.57Z"/>
  <g>
    <g>
      <circle cx="6.83" cy="9.12" r="6.83"/>
      <circle cx="25.9" cy="9.12" r="6.83"/>
      <circle cx="44.98" cy="9.12" r="6.83"/>
      <circle cx="64.05" cy="9.12" r="6.83"/>
      <circle cx="83.13" cy="9.12" r="6.83"/>
      <circle cx="102.2" cy="9.12" r="6.83"/>
    </g>
    <g>
      <circle cx="6.83" cy="28.2" r="6.83"/>
      <circle cx="25.9" cy="28.2" r="6.83"/>
      <circle cx="44.98" cy="28.2" r="6.83"/>
      <circle cx="64.05" cy="28.2" r="6.83"/>
      <circle cx="83.13" cy="28.2" r="6.83"/>
      <circle cx="102.2" cy="28.2" r="6.83"/>
    </g>
    <g>
      <circle cx="6.83" cy="47.12" r="6.83"/>
      <circle cx="25.9" cy="47.12" r="6.83"/>
      <circle cx="44.98" cy="47.12" r="6.83"/>
      <circle cx="64.05" cy="47.12" r="6.83"/>
      <circle cx="83.13" cy="47.12" r="6.83"/>
      <circle cx="102.2" cy="47.12" r="6.83"/>
    </g>
    <g>
      <circle cx="6.83" cy="66.12" r="6.83"/>
      <circle cx="25.9" cy="66.12" r="6.83"/>
      <circle cx="44.98" cy="66.12" r="6.83"/>
      <circle cx="64.05" cy="66.12" r="6.83"/>
      <circle cx="83.13" cy="66.12" r="6.83"/>
      <circle cx="102.2" cy="66.12" r="6.83"/>
    </g>
    <g>
      <circle cx="6.83" cy="85.18" r="6.83"/>
      <circle cx="25.9" cy="85.18" r="6.83"/>
      <circle cx="44.98" cy="85.18" r="6.83"/>
      <circle cx="64.05" cy="85.18" r="6.83"/>
      <circle cx="83.13" cy="85.18" r="6.83"/>
      <circle cx="102.2" cy="85.18" r="6.83"/>
    </g>
    <g>
      <circle cx="6.83" cy="104.13" r="6.83"/>
      <circle cx="25.9" cy="104.13" r="6.83"/>
      <circle cx="44.98" cy="104.13" r="6.83"/>
      <circle cx="64.05" cy="104.13" r="6.83"/>
      <circle cx="83.13" cy="104.13" r="6.83"/>
      <circle cx="102.2" cy="104.13" r="6.83"/>
    </g>
  </g>
  <polygon class="cls-1" points="186.33 56.62 180.28 53.13 180.28 55.62 126.26 55.62 126.26 57.63 180.28 57.63 180.28 60.12 186.33 56.62"/>
</svg>